<svg width="808" height="342" xmlns="http://www.w3.org/2000/svg">
 <defs>
  <filter id="ANZ_blur">
   <feGaussianBlur stdDeviation="0" in="SourceGraphic"/>
  </filter>
 </defs>
 <metadata id="metadata3080">image/svg+xml</metadata>
 <g>
  <title>background</title>
  <rect fill="none" id="canvas_background" height="344" width="810" y="-1" x="-1"/>
 </g>
 <g>
  <title>Layer 1</title>
  <g transform="rotate(26 168.31379699707028,173.30616760253906) " filter="url(#ANZ_blur)" id="ANZ">
   <path fill="#ffdb00" fill-rule="nonzero" id="path11" d="m343.252547,160.329269c7.1675,7.1675 7.1675,18.7875 -0.001,25.955l-161.9625,161.95254c-7.1675,7.1675 -18.7875,7.1675 -25.95625,0l-161.95728,-161.95254c-7.16797,-7.1675 -7.16675,-18.7875 0,-25.955l161.96453,-161.95329c7.16875,-7.16796 18.7875,-7.16796 25.95625,0l161.95625,161.95329z"/>
   <path fill="#000000" fill-rule="nonzero" id="path13" d="m-3.815643,182.840189c-5.11963,-5.12 -5.11963,-13.42 0,-18.54l162.85787,-162.85412c5.12,-5.11963 13.42,-5.11963 18.54,0l162.86125,162.85412c5.12,5.12 5.12,13.42 0,18.54l-162.8575,162.85372c-5.12,5.12 -13.42,5.12 -18.54,0l-162.86162,-162.85372z"/>
   <path fill="#ffdb00" fill-rule="nonzero" id="path15" d="m0.945077,177.877689c-2.49143,-2.49 -2.49143,-6.5275 0,-9.01875l162.85732,-162.85357c2.49125,-2.49143 6.52875,-2.49143 9.01875,0l162.8625,162.85357c2.49125,2.49125 2.49125,6.52875 0,9.01875l-162.85875,162.85492c-2.49,2.4913 -6.5275,2.4913 -9.01875,0l-162.86107,-162.85492z"/>
   <path fill="#000000" fill-rule="nonzero" id="path17" d="m150.596957,95.142359l-16.775,6.54537c-3.615,1.49788 -7.76,-0.2185 -9.2575,-3.83425c-0.94125,-2.27162 -0.61625,-4.746 0.65375,-6.64787l43.095,-66.9275l43.09625,66.9275c1.26875,1.90187 1.59376,4.37625 0.65251,6.64787c-1.49626,3.61575 -5.64251,5.33213 -9.25626,3.83425l-16.77625,-6.54537l0.006,6.73212c0,15.6305 -7.77,29.43926 -19.67875,37.768l-14.90875,10.32688c-2.655,1.9325 -4.3825,5.06625 -4.3825,8.60125c0,4.965 3.375,9.12875 7.9775,10.29625l35.44,8.8775c19.8175,5.1475 34.52751,23.1775 34.52751,44.60625c0,20.30375 -13.25626,37.225 -31.49251,43.3575c-4.29,1.3688 -7.48375,5.0488 -7.48375,9.7913l0,30.1175l-35.43375,0l0.02,-30.1188c0,-20.35625 13.305,-37.28625 31.61625,-43.3775c4.18,-1.43 7.34125,-5.105 7.34125,-9.77c0,-4.875 -3.2625,-8.9825 -7.73625,-10.2375l-35.9275,-8.99875c-19.74245,-5.19875 -34.28082,-23.1675 -34.28082,-44.54375c0,-15.39937 7.57212,-29.04562 19.18087,-37.41063l15.4675,-10.72462c2.625,-1.93613 4.31875,-5.0525 4.31875,-8.5645l-0.004,-6.7285l0.00045,0z"/>
  </g>
  <text font-weight="bold" font-style="italic" xml:space="preserve" text-anchor="start" font-family="Helvetica, Arial, sans-serif" font-size="111" id="svg_3" y="227" x="160.814026" stroke-width="0" stroke="#000" fill="#000703">TripPlanner</text>
 </g>
</svg>